  <svg
              className="mt-[5px]"
              width="24"
              height="24"
              xmlns="http://www.w3.org/2000/svg"
              xmlnsXlink="http://www.w3.org/1999/xlink"
              version="1.1"
              x="0px"
              y="0px"
              viewBox="0 0 1024 1280"
              xmlSpace="preserve"
            >
              <g>
                <g>
                  <g>
                    <path d="M720.3,539.5c0,11.2-0.8,22.3-2.2,33.3c0.5-3.5,1-7.1,1.4-10.6c-3,21.5-8.7,42.4-17.1,62.4     c1.3-3.2,2.7-6.4,4-9.6c-8.5,20-19.5,38.7-32.7,55.9c2.1-2.7,4.2-5.4,6.3-8.1c-13,16.6-27.9,31.6-44.6,44.6     c2.7-2.1,5.4-4.2,8.1-6.3c-17.2,13.2-35.9,24.2-55.9,32.7c3.2-1.3,6.4-2.7,9.6-4c-20,8.4-41,14.1-62.4,17.1     c3.5-0.5,7.1-1,10.6-1.4c-22.1,2.9-44.5,2.9-66.7,0c3.5,0.5,7.1,1,10.6,1.4c-21.5-3-42.4-8.7-62.4-17.1c3.2,1.3,6.4,2.7,9.6,4     c-20-8.5-38.7-19.5-55.9-32.7c2.7,2.1,5.4,4.2,8.1,6.3c-16.6-13-31.6-27.9-44.6-44.6c2.1,2.7,4.2,5.4,6.3,8.1     c-13.2-17.2-24.2-35.9-32.7-55.9c1.3,3.2,2.7,6.4,4,9.6c-8.4-20-14.1-41-17.1-62.4c0.5,3.5,1,7.1,1.4,10.6     c-1.5-11.1-2.2-22.2-2.2-33.3c-0.1-20.9-18.4-41-40-40c-21.6,1-40.1,17.6-40,40c0.2,58.1,18,117.1,52,164.4     c9.1,12.7,19,25.1,29.9,36.4c10.8,11.2,22.7,20.9,35.1,30.4c22.9,17.5,48.4,30.6,75.5,40.5c54.7,20.2,117.1,21.7,173.1,6     c54.7-15.4,106-47.7,142.3-91.6c10-12.1,19.5-24.7,27.6-38.2c8.2-13.6,14.7-28,20.8-42.7c11.2-27.1,17-55.8,19.4-84.9     c0.6-6.7,0.8-13.5,0.8-20.3c0.1-20.9-18.4-41-40-40C738.5,500.5,720.3,517.1,720.3,539.5L720.3,539.5z" />
                  </g>
                </g>
                <g>
                  <path d="M512,659.1L512,659.1c-78.1,0-141.9-63.9-141.9-141.9V213c0-78.1,63.9-141.9,141.9-141.9h0    c78.1,0,141.9,63.9,141.9,141.9v304.1C653.9,595.2,590.1,659.1,512,659.1z" />
                  <g>
                    <path d="M512,629.1c-6.5,0-13-0.5-19.4-1.3c2.7,0.4,5.3,0.7,8,1.1c-12.1-1.7-23.8-4.9-35.1-9.6c2.4,1,4.8,2,7.2,3     c-8.3-3.5-16.4-7.8-23.9-12.8c-1.8-1.2-3.6-2.5-5.4-3.8c-4.2-3,1.7,1.8,2.4,1.9c-0.6-0.1-2-1.6-2.6-2.1c-3.6-2.9-7-6-10.2-9.3     c-3.1-3.1-6.1-6.3-8.9-9.7c-0.7-0.8-1.4-1.7-2.1-2.6c-2.2-2.7,4.6,6.2,1.9,2.4c-1.3-1.8-2.6-3.6-3.8-5.4     c-5.2-7.7-9.6-15.9-13.2-24.4c1,2.4,2,4.8,3,7.2c-4.7-11.3-7.9-23-9.6-35.1c0.4,2.7,0.7,5.3,1.1,8c-2-14.7-1.3-29.8-1.3-44.7     c0-25.1,0-50.2,0-75.3c0-57.2,0-114.4,0-171.5c0-17-0.9-34.5,1.3-51.4c-0.4,2.7-0.7,5.3-1.1,8c1.7-12.1,4.9-23.8,9.6-35.1     c-1,2.4-2,4.8-3,7.2c3.5-8.3,7.8-16.4,12.8-23.9c1.2-1.8,2.5-3.6,3.8-5.4c3-4.2-1.8,1.7-1.9,2.4c0.1-0.6,1.6-2,2.1-2.6     c2.9-3.6,6-7,9.3-10.2c3.1-3.1,6.3-6.1,9.7-8.9c0.8-0.7,1.7-1.4,2.6-2.1c2.7-2.2-6.2,4.6-2.4,1.9c1.8-1.3,3.6-2.6,5.4-3.8     c7.7-5.2,15.9-9.6,24.4-13.2c-2.4,1-4.8,2-7.2,3c11.3-4.7,23-7.9,35.1-9.6c-2.7,0.4-5.3,0.7-8,1.1c12.9-1.7,25.9-1.7,38.8,0     c-2.7-0.4-5.3-0.7-8-1.1c12.1,1.7,23.8,4.9,35.1,9.6c-2.4-1-4.8-2-7.2-3c8.3,3.5,16.4,7.8,23.9,12.8c1.8,1.2,3.6,2.5,5.4,3.8     c4.2,3-1.7-1.8-2.4-1.9c0.6,0.1,2,1.6,2.6,2.1c3.6,2.9,7,6,10.2,9.3c3.1,3.1,6.1,6.3,8.9,9.7c0.7,0.8,1.4,1.7,2.1,2.6     c2.2,2.7-4.6-6.2-1.9-2.4c1.3,1.8,2.6,3.6,3.8,5.4c5.2,7.7,9.6,15.9,13.2,24.4c-1-2.4-2-4.8-3-7.2c4.7,11.3,7.9,23,9.6,35.1     c-0.4-2.7-0.7-5.3-1.1-8c2,14.7,1.3,29.8,1.3,44.7c0,25.1,0,50.2,0,75.3c0,57.2,0,114.4,0,171.5c0,17,0.9,34.5-1.3,51.4     c0.4-2.7,0.7-5.3,1.1-8c-1.7,12.1-4.9,23.8-9.6,35.1c1-2.4,2-4.8,3-7.2c-3.5,8.3-7.8,16.4-12.8,23.9c-1.2,1.8-2.5,3.6-3.8,5.4     c-3,4.2,1.8-1.7,1.9-2.4c-0.1,0.6-1.6,2-2.1,2.6c-2.9,3.6-6,7-9.3,10.2c-3.1,3.1-6.3,6.1-9.7,8.9c-0.8,0.7-1.7,1.4-2.6,2.1     c-2.7,2.2,6.2-4.6,2.4-1.9c-1.8,1.3-3.6,2.6-5.4,3.8c-7.7,5.2-15.9,9.6-24.4,13.2c2.4-1,4.8-2,7.2-3c-11.3,4.7-23,7.9-35.1,9.6     c2.7-0.4,5.3-0.7,8-1.1C525,628.6,518.5,629.1,512,629.1c-15.7,0.1-30.7,13.7-30,30c0.7,16.2,13.2,30.1,30,30     c42.3-0.2,82.4-16,114.2-43.8c29.2-25.4,49.7-62.5,55.3-100.8c2.1-14.5,2.4-28.6,2.4-43.1c0-17.9,0-35.8,0-53.7     c0-50,0-99.9,0-149.9c0-28.3,0.1-56.5,0-84.8c-0.2-41.4-15.3-80.1-41.6-111.8c-24.5-29.4-61.1-50.8-98.9-57.2     c-41.3-7-83.9-0.3-120,21.6c-35.5,21.6-62.1,55.4-75.2,94.8c-11.2,33.7-8.3,70.9-8.3,105.9c0,49.4,0,98.8,0,148.2     c0,33.5,0,67,0,100.4c0,30.9,7.7,61.5,23.3,88.3c20.8,35.6,53.8,62.1,92.4,76.1c17.8,6.5,37.3,9.6,56.3,9.6     c15.7,0,30.7-13.8,30-30C541.3,642.9,528.8,629.1,512,629.1z" />
                  </g>
                </g>
                <g>
                  <g>
                    <path d="M472,787.8c0,48.1,0,96.3,0,144.4c0,6.9,0,13.8,0,20.8c0,20.9,18.4,41,40,40c21.7-1,40-17.6,40-40     c0-48.1,0-96.3,0-144.4c0-6.9,0-13.8,0-20.8c0-20.9-18.4-41-40-40C490.3,748.7,472,765.3,472,787.8L472,787.8z" />
                  </g>
                </g>
              </g>
            </svg>