<svg xmlns="http://www.w3.org/2000/svg" height="24" viewBox="0 0 24 24" width="24" focusable="false" style="pointer-events: none; display: inherit; width: 100%; height: 100%;" aria-hidden="true"><path d="M13.72 11.93C15.58 11.59 17 9.96 17 8c0-2.21-1.79-4-4-4S9 5.79 9 8c0 1.96 1.42 3.59 3.28 3.93C6.77 12.21 4 15.76 4 20h18c0-4.24-2.77-7.79-8.28-8.07zM10 8c0-1.65 1.35-3 3-3s3 1.35 3 3-1.35 3-3 3-3-1.35-3-3zm3 4.9c5.33 0 7.56 2.99 7.94 6.1H5.06c.38-3.11 2.61-6.1 7.94-6.1zM7 12H2v-1h5v1z"></path></svg>